<?xml version="1.0" encoding="UTF-8" standalone="no"?>
<!DOCTYPE svg PUBLIC "-//W3C//DTD SVG 1.1//EN" "http://www.w3.org/Graphics/SVG/1.1/DTD/svg11.dtd">
<svg width="100%" height="100%" viewBox="0 0 17 11" version="1.1" xmlns="http://www.w3.org/2000/svg" xmlns:xlink="http://www.w3.org/1999/xlink" xml:space="preserve" xmlns:serif="http://www.serif.com/" style="fill-rule:evenodd;clip-rule:evenodd;stroke-linejoin:round;stroke-miterlimit:2;">
    <rect x="3" y="1" width="13" height="9" style="fill:rgb(235,235,235);"/>
    <path d="M2,8L0,8L0,3L2,3L2,1L3,1L3,10L2,10L2,8ZM3,1L3,0L16,0L16,1L3,1ZM16,1L17,1L17,10L16,10L16,1ZM16,10L16,11L3,11L3,10L16,10Z" style="fill:rgb(65,65,65);"/>
    <g>
        <rect x="4" y="2" width="11" height="1" style="fill:rgb(248,104,40);"/>
        <rect x="4" y="8" width="11" height="1" style="fill:rgb(248,104,40);"/>
        <rect x="4" y="6" width="11" height="2" style="fill:rgb(248,32,0);"/>
        <rect x="4" y="5" width="11" height="1" style="fill:rgb(248,104,40);"/>
        <rect x="4" y="3" width="11" height="2" style="fill:rgb(248,152,72);"/>
        <path d="M7,5L5,5L5,4L7,4L7,3L11,3L11,4L12,4L12,5L15,5L15,6L12,6L12,7L11,7L11,8L7,8L7,7L5,7L5,6L7,6L7,5Z" style="fill:rgb(65,65,65);"/>
    </g>
</svg>
