<?xml version="1.0" encoding="UTF-8" standalone="no"?>
<!DOCTYPE svg PUBLIC "-//W3C//DTD SVG 1.1//EN" "http://www.w3.org/Graphics/SVG/1.1/DTD/svg11.dtd">
<svg width="100%" height="100%" viewBox="0 0 17 11" version="1.1" xmlns="http://www.w3.org/2000/svg" xmlns:xlink="http://www.w3.org/1999/xlink" xml:space="preserve" xmlns:serif="http://www.serif.com/" style="fill-rule:evenodd;clip-rule:evenodd;stroke-linejoin:round;stroke-miterlimit:2;">
    <rect x="3" y="1" width="13" height="9" style="fill:rgb(235,235,235);"/>
    <path d="M2,8L0,8L0,3L2,3L2,1L3,1L3,10L2,10L2,8ZM3,1L3,0L16,0L16,1L3,1ZM16,1L17,1L17,10L16,10L16,1ZM16,10L16,11L3,11L3,10L16,10Z" style="fill:rgb(65,65,65);"/>
    <g transform="matrix(1,0,0,1,9,0)">
        <path d="M6,2L6,3L4,3L4,2L6,2ZM6,5L6,6L4,6L4,5L6,5ZM6,8L6,9L4,9L4,8L6,8Z" style="fill:rgb(0,113,251);"/>
        <path d="M6,5L4,5L4,3L6,3L6,2L7,2L7,9L6,9L6,5Z" style="fill:rgb(32,170,251);"/>
        <g transform="matrix(1,0,0,1,-9,1)">
            <rect x="15" y="1" width="1" height="7" style="fill:rgb(235,235,235);"/>
        </g>
        <rect x="4" y="6" width="2" height="2" style="fill:rgb(0,81,178);"/>
    </g>
    <g transform="matrix(1,0,0,1,6,0)">
        <path d="M6,2L6,3L4,3L4,2L6,2ZM6,5L6,6L4,6L4,5L6,5ZM6,8L6,9L4,9L4,8L6,8Z" style="fill:rgb(0,113,251);"/>
        <path d="M6,5L4,5L4,3L6,3L6,2L7,2L7,9L6,9L6,5Z" style="fill:rgb(32,170,251);"/>
        <rect x="4" y="6" width="2" height="2" style="fill:rgb(0,81,178);"/>
    </g>
    <g transform="matrix(1,0,0,1,3,0)">
        <path d="M6,2L6,3L4,3L4,2L6,2ZM6,5L6,6L4,6L4,5L6,5ZM6,8L6,9L4,9L4,8L6,8Z" style="fill:rgb(0,113,251);"/>
        <path d="M6,5L4,5L4,3L6,3L6,2L7,2L7,9L6,9L6,5Z" style="fill:rgb(32,170,251);"/>
        <rect x="4" y="6" width="2" height="2" style="fill:rgb(0,81,178);"/>
    </g>
    <g>
        <path d="M6,2L6,3L4,3L4,2L6,2ZM6,5L6,6L4,6L4,5L6,5ZM6,8L6,9L4,9L4,8L6,8Z" style="fill:rgb(0,113,251);"/>
        <path d="M6,5L4,5L4,3L6,3L6,2L7,2L7,9L6,9L6,5Z" style="fill:rgb(32,170,251);"/>
        <rect x="4" y="6" width="2" height="2" style="fill:rgb(0,81,178);"/>
    </g>
</svg>
