<?xml version="1.0" encoding="UTF-8" standalone="no"?>
<!DOCTYPE svg PUBLIC "-//W3C//DTD SVG 1.1//EN" "http://www.w3.org/Graphics/SVG/1.1/DTD/svg11.dtd">
<svg width="100%" height="100%" viewBox="0 0 29 28" version="1.1" xmlns="http://www.w3.org/2000/svg" xmlns:xlink="http://www.w3.org/1999/xlink" xml:space="preserve" xmlns:serif="http://www.serif.com/" style="fill-rule:evenodd;clip-rule:evenodd;stroke-linejoin:round;stroke-miterlimit:2;">
    <g id="Artboard2" transform="matrix(1,0,0,1.33441,0,0)">
        <rect x="0" y="0" width="28.001" height="20.983" style="fill:none;"/>
        <g transform="matrix(0.916667,0,0,0.686944,3.0005,2.24818)">
            <path d="M20.096,9.333C21.521,9.333 24,10.542 24,12C24,13.5 21.521,14.667 20.096,14.667L15.238,14.667L11.05,21.996C10.813,22.413 10.371,22.667 9.892,22.667L7.55,22.667C7.108,22.667 6.788,22.242 6.908,21.817L8.95,14.667L4.667,14.667L2.867,17.067C2.742,17.233 2.542,17.333 2.333,17.333L0.583,17.333C0.258,17.333 0,17.071 0,16.75C0,16.696 0.008,16.642 0.021,16.588L1.333,12L0.021,7.413C0.004,7.358 0,7.304 0,7.25C0,6.925 0.263,6.667 0.583,6.667L2.333,6.667C2.542,6.667 2.742,6.767 2.867,6.933L4.667,9.333L8.954,9.333L6.913,2.183C6.788,1.758 7.108,1.333 7.55,1.333L9.892,1.333C10.371,1.333 10.813,1.592 11.05,2.004L15.238,9.333L20.096,9.333Z" style="fill:white;fill-rule:nonzero;"/>
        </g>
    </g>
</svg>
